<?xml version="1.0" encoding="utf-8"?>
<!-- Generator: Adobe Illustrator 25.4.1, SVG Export Plug-In . SVG Version: 6.00 Build 0)  -->
<svg version="1.1" id="Layer_1" xmlns="http://www.w3.org/2000/svg" xmlns:xlink="http://www.w3.org/1999/xlink" x="0px" y="0px"
	 viewBox="0 0 400 400" style="enable-background:new 0 0 400 400;" xml:space="preserve">
<style type="text/css">
	.st0{clip-path:url(#SVGID_00000155852130894163322050000016640202608699877788_);}
	.st1{clip-path:url(#SVGID_00000075132308347980296140000013795462142791372683_);fill:#F3EDDF;}
	.st2{clip-path:url(#SVGID_00000026868615030493781270000003965935684533503361_);fill:#62D9D9;}
	
		.st3{opacity:0.9;clip-path:url(#SVGID_00000071561941704618054140000001320200986414749869_);fill:#F25D50;enable-background:new    ;}
	.st4{opacity:0.7;clip-path:url(#SVGID_00000034061116348437904930000011252754168094763172_);}
	.st5{fill:#07869F;}
	.st6{opacity:0.5;clip-path:url(#SVGID_00000048496819864128177010000001542822676321340831_);}
	.st7{fill:#F3EDDF;}
	.st8{opacity:0.67;clip-path:url(#SVGID_00000150066232001747822500000006697493238211477380_);}
	.st9{fill:url(#SVGID_00000081637361233274858520000017781289686977980564_);}
	.st10{fill:#FFFFFF;}
</style>
<g>
	<g>
		<g>
			<defs>
				<circle id="SVGID_1_" cx="200" cy="200" r="200"/>
			</defs>
			<clipPath id="SVGID_00000115506737874474289990000015696853851859600289_">
				<use xlink:href="#SVGID_1_"  style="overflow:visible;"/>
			</clipPath>
			<g style="clip-path:url(#SVGID_00000115506737874474289990000015696853851859600289_);">
				<g>
					<defs>
						<rect id="SVGID_00000159454219189730684370000006612382497793659285_" x="2.96" y="-46.3" width="596.93" height="457.67"/>
					</defs>
					<clipPath id="SVGID_00000026882537992390199560000017934601250131435967_">
						<use xlink:href="#SVGID_00000159454219189730684370000006612382497793659285_"  style="overflow:visible;"/>
					</clipPath>
					
						<rect x="2.96" y="13.51" style="clip-path:url(#SVGID_00000026882537992390199560000017934601250131435967_);fill:#F3EDDF;" width="596.93" height="265.16"/>
				</g>
				<g>
					<defs>
						<rect id="SVGID_00000170972372232153772450000004695813255870632083_" x="2.96" y="-46.3" width="596.93" height="457.67"/>
					</defs>
					<clipPath id="SVGID_00000119079883262411983110000012745399561890912170_">
						<use xlink:href="#SVGID_00000170972372232153772450000004695813255870632083_"  style="overflow:visible;"/>
					</clipPath>
					
						<rect x="-107.48" y="-120.59" style="clip-path:url(#SVGID_00000119079883262411983110000012745399561890912170_);fill:#62D9D9;" width="310.47" height="310.47"/>
				</g>
				<g>
					<defs>
						<rect id="SVGID_00000019661254856010257430000006815498791437685404_" x="2.96" y="-46.3" width="596.93" height="457.67"/>
					</defs>
					<clipPath id="SVGID_00000155144471417944032090000014276287313019171751_">
						<use xlink:href="#SVGID_00000019661254856010257430000006815498791437685404_"  style="overflow:visible;"/>
					</clipPath>
					
						<rect x="138.32" y="-4.52" style="opacity:0.9;clip-path:url(#SVGID_00000155144471417944032090000014276287313019171751_);fill:#F25D50;enable-background:new    ;" width="354.89" height="354.89"/>
				</g>
				<g>
					<defs>
						<rect id="SVGID_00000158020381135892689390000013634161904642126499_" x="2.96" y="-46.3" width="596.93" height="457.67"/>
					</defs>
					<clipPath id="SVGID_00000105397636621636937880000008251847398272240274_">
						<use xlink:href="#SVGID_00000158020381135892689390000013634161904642126499_"  style="overflow:visible;"/>
					</clipPath>
					<g style="opacity:0.7;clip-path:url(#SVGID_00000105397636621636937880000008251847398272240274_);">
						<path class="st5" d="M245.66,328.52v85.29H-77.61v-84.25c0-88.29,72.23-162.08,160.52-162.68
							C172.69,166.28,245.66,238.88,245.66,328.52"/>
					</g>
				</g>
				<g>
					<defs>
						<rect id="SVGID_00000134968972310896113920000011815240467151417274_" x="2.96" y="-46.3" width="596.93" height="457.67"/>
					</defs>
					<clipPath id="SVGID_00000016773589244035337500000018369782775780673416_">
						<use xlink:href="#SVGID_00000134968972310896113920000011815240467151417274_"  style="overflow:visible;"/>
					</clipPath>
					<g style="opacity:0.5;clip-path:url(#SVGID_00000016773589244035337500000018369782775780673416_);">
						<path class="st7" d="M617.07,325.5v114.54H182.93V326.9c0-118.57,97-217.66,215.57-218.47
							C519.07,107.62,617.07,205.12,617.07,325.5"/>
					</g>
				</g>
				<g>
					<defs>
						<rect id="SVGID_00000148625477144816659460000008790241018069103516_" x="2.96" y="-46.3" width="596.93" height="457.67"/>
					</defs>
					<clipPath id="SVGID_00000100354332354194750830000010089900380213221789_">
						<use xlink:href="#SVGID_00000148625477144816659460000008790241018069103516_"  style="overflow:visible;"/>
					</clipPath>
					<g style="opacity:0.67;clip-path:url(#SVGID_00000100354332354194750830000010089900380213221789_);">
						
							<linearGradient id="SVGID_00000142168535209580593490000004757691833695417016_" gradientUnits="userSpaceOnUse" x1="532.5987" y1="287.1534" x2="377.9777" y2="285.6808" gradientTransform="matrix(1 0 0 -1 0 402)">
							<stop  offset="0.2121" style="stop-color:#F25D50"/>
							<stop  offset="0.4572" style="stop-color:#C98177"/>
							<stop  offset="1" style="stop-color:#62D9D9"/>
						</linearGradient>
						<path style="fill:url(#SVGID_00000142168535209580593490000004757691833695417016_);" d="M286.86,84.69V13.51h269.77v70.31
							c0,73.68-60.27,135.25-133.95,135.75C347.75,220.08,286.86,159.49,286.86,84.69"/>
					</g>
				</g>
			</g>
		</g>
	</g>
	<g>
		<g>
			<path d="M371.43,200c0,94.68-76.75,171.43-171.43,171.43S28.57,294.68,28.57,200S105.32,28.57,200,28.57
				C294.68,28.57,371.43,105.32,371.43,200"/>
			<g>
				<path class="st10" d="M303.51,146.3l0.03-27.42l-154.76-0.21c-42.88,0-77.72,34.8-77.78,77.58
					c-0.03,20.71,8.03,40.22,22.7,54.93s34.15,22.83,54.87,22.86l154.76,0.21l0.03-27.42l-59.9-0.08
					c-13.4-0.02-26.02-5.27-35.51-14.78c-9.49-9.52-14.71-22.14-14.69-35.55c0.02-13.4,5.27-26.01,14.79-35.5
					c9.5-9.47,22.1-14.69,35.48-14.69L303.51,146.3z M179.42,240.27L179.42,240.27l4.38,6.39l-35.19-0.05
					c-13.4-0.02-26.01-5.27-35.5-14.78c-9.49-9.52-14.71-22.15-14.69-35.55c0.04-27.67,22.58-50.19,50.26-50.19l35.26,0.04
					l-4.39,6.38c-8.93,12.96-13.67,28.12-13.69,43.86C165.84,212.1,170.53,227.28,179.42,240.27"/>
			</g>
			<g>
				<g>
					<path class="st10" d="M244.5,213.81l-1.29-4.05h-11.86l-1.29,4.05h-8.24l11.91-33.34h7.1l12.05,33.34H244.5z M237.31,190
						l-4.1,13.72h8.1L237.31,190z"/>
					<path class="st10" d="M258.55,187.14h-7.52v-6.67h22.81v6.67h-7.57v26.67h-7.71v-26.67H258.55z"/>
					<path class="st10" d="M294.84,180.47h8.52l-9.91,16.67l9.91,16.67h-8.52l-5.81-10.71l-5.81,10.71h-8.48l9.91-16.67l-9.91-16.67
						h8.48l5.81,10.76L294.84,180.47z"/>
				</g>
			</g>
		</g>
	</g>
</g>
</svg>
