<?xml version="1.0" encoding="utf-8"?>
<!-- Generator: Adobe Illustrator 25.4.1, SVG Export Plug-In . SVG Version: 6.00 Build 0)  -->
<svg version="1.1" id="Layer_1" xmlns="http://www.w3.org/2000/svg" xmlns:xlink="http://www.w3.org/1999/xlink" x="0px" y="0px"
	 viewBox="0 0 400 400" style="enable-background:new 0 0 400 400;" xml:space="preserve">
<style type="text/css">
	.st0{clip-path:url(#SVGID_00000141428520195946503900000000563219471498872462_);fill:#3A414B;}
	
		.st1{opacity:0.53;clip-path:url(#SVGID_00000052824055576018139650000016541805474313917073_);fill:url(#SVGID_00000129199758471767963930000001193271865178937479_);enable-background:new    ;}
	
		.st2{opacity:0.94;clip-path:url(#SVGID_00000096055586880681218120000006865972100413730988_);fill:url(#SVGID_00000125568504712812893620000014391860351164142232_);enable-background:new    ;}
	
		.st3{clip-path:url(#SVGID_00000170276731131071707410000001010330335919630520_);fill:url(#SVGID_00000011735920003126092540000000025275717944878265_);}
	
		.st4{clip-path:url(#SVGID_00000003098375399886086070000002093883761636021439_);fill:url(#SVGID_00000135688315049003533050000013133850373966827189_);}
	.st5{fill:#FFFFFF;}
</style>
<g>
	<g>
		<g>
			<defs>
				<circle id="SVGID_1_" cx="200" cy="200" r="200"/>
			</defs>
			<clipPath id="SVGID_00000047022958875224876160000012622741252600343960_">
				<use xlink:href="#SVGID_1_"  style="overflow:visible;"/>
			</clipPath>
			
				<rect x="-44.14" y="-235.75" style="clip-path:url(#SVGID_00000047022958875224876160000012622741252600343960_);fill:#3A414B;" width="556.61" height="678.03"/>
		</g>
		<g>
			<defs>
				<circle id="SVGID_00000071521867939904055080000003891501101226835616_" cx="200" cy="200" r="200"/>
			</defs>
			<clipPath id="SVGID_00000176020456271222784090000017778603780932665249_">
				<use xlink:href="#SVGID_00000071521867939904055080000003891501101226835616_"  style="overflow:visible;"/>
			</clipPath>
			
				<radialGradient id="SVGID_00000044176685777363759450000010014495007509116051_" cx="-315.03" cy="205.03" r="413.71" gradientTransform="matrix(1 0 0 -1 0 402)" gradientUnits="userSpaceOnUse">
				<stop  offset="0" style="stop-color:#FFBC00;stop-opacity:0"/>
				<stop  offset="0.519" style="stop-color:#FFBC00;stop-opacity:0.65"/>
				<stop  offset="0.9996" style="stop-color:#FFBC00;stop-opacity:0.95"/>
			</radialGradient>
			
				<circle style="opacity:0.53;clip-path:url(#SVGID_00000176020456271222784090000017778603780932665249_);fill:url(#SVGID_00000044176685777363759450000010014495007509116051_);enable-background:new    ;" cx="-315.03" cy="196.97" r="413.71"/>
		</g>
		<g>
			<defs>
				<circle id="SVGID_00000005244493542157059560000015571602515288220855_" cx="200" cy="200" r="200"/>
			</defs>
			<clipPath id="SVGID_00000181060971407103981710000013782667436288729762_">
				<use xlink:href="#SVGID_00000005244493542157059560000015571602515288220855_"  style="overflow:visible;"/>
			</clipPath>
			
				<radialGradient id="SVGID_00000170244825229951303820000005317394529560296358_" cx="-367.96" cy="201.8" r="413.71" gradientTransform="matrix(1 0 0 -1 0 402)" gradientUnits="userSpaceOnUse">
				<stop  offset="0" style="stop-color:#FFBC00;stop-opacity:0"/>
				<stop  offset="0.519" style="stop-color:#FFBC00;stop-opacity:0.65"/>
				<stop  offset="0.9996" style="stop-color:#FFBC00;stop-opacity:0.95"/>
			</radialGradient>
			
				<circle style="opacity:0.94;clip-path:url(#SVGID_00000181060971407103981710000013782667436288729762_);fill:url(#SVGID_00000170244825229951303820000005317394529560296358_);enable-background:new    ;" cx="-367.96" cy="200.2" r="413.71"/>
		</g>
		<g>
			<defs>
				<circle id="SVGID_00000112602655935382208160000015724507682869232528_" cx="200" cy="200" r="200"/>
			</defs>
			<clipPath id="SVGID_00000026154534791316128510000009894911271055050922_">
				<use xlink:href="#SVGID_00000112602655935382208160000015724507682869232528_"  style="overflow:visible;"/>
			</clipPath>
			
				<linearGradient id="SVGID_00000143603601860164556630000009463270788537457541_" gradientUnits="userSpaceOnUse" x1="169.08" y1="199.405" x2="595.02" y2="199.405" gradientTransform="matrix(1 0 0 -1 0 402)">
				<stop  offset="0.0292" style="stop-color:#123357"/>
				<stop  offset="0.4759" style="stop-color:#DE2621"/>
				<stop  offset="1" style="stop-color:#123357"/>
			</linearGradient>
			
				<rect x="169.08" y="-10.37" style="clip-path:url(#SVGID_00000026154534791316128510000009894911271055050922_);fill:url(#SVGID_00000143603601860164556630000009463270788537457541_);" width="425.94" height="425.93"/>
		</g>
		<g>
			<defs>
				<circle id="SVGID_00000170962093709813774460000016022350260305214864_" cx="200" cy="200" r="200"/>
			</defs>
			<clipPath id="SVGID_00000165919457987412982520000015846690997740361119_">
				<use xlink:href="#SVGID_00000170962093709813774460000016022350260305214864_"  style="overflow:visible;"/>
			</clipPath>
			
				<linearGradient id="SVGID_00000123421472816032772390000003390769867963497612_" gradientUnits="userSpaceOnUse" x1="278.07" y1="52.315" x2="483.9" y2="52.315" gradientTransform="matrix(1 0 0 -1 0 402)">
				<stop  offset="0.0292" style="stop-color:#123357"/>
				<stop  offset="0.4759" style="stop-color:#DE2621"/>
				<stop  offset="1" style="stop-color:#123357"/>
			</linearGradient>
			
				<rect x="278.07" y="246.77" style="clip-path:url(#SVGID_00000165919457987412982520000015846690997740361119_);fill:url(#SVGID_00000123421472816032772390000003390769867963497612_);" width="205.83" height="205.83"/>
		</g>
	</g>
</g>
<g>
	<g>
		<path d="M371.43,200c0,94.68-76.75,171.43-171.43,171.43S28.57,294.68,28.57,200S105.32,28.57,200,28.57
			C294.68,28.57,371.43,105.32,371.43,200"/>
		<g>
			<path class="st5" d="M303.51,146.3l0.03-27.42l-154.76-0.21c-42.88,0-77.72,34.8-77.78,77.58c-0.03,20.71,8.03,40.22,22.7,54.93
				s34.15,22.83,54.87,22.86l154.76,0.21l0.03-27.42l-59.9-0.08c-13.4-0.02-26.02-5.27-35.51-14.78
				c-9.49-9.52-14.71-22.14-14.69-35.55c0.02-13.4,5.27-26.01,14.79-35.5c9.5-9.47,22.1-14.69,35.48-14.69L303.51,146.3z
				 M179.42,240.27L179.42,240.27l4.38,6.39l-35.19-0.05c-13.4-0.02-26.01-5.27-35.5-14.78c-9.49-9.52-14.71-22.15-14.69-35.55
				c0.04-27.67,22.58-50.19,50.26-50.19l35.26,0.04l-4.39,6.38c-8.93,12.96-13.67,28.12-13.69,43.86
				C165.84,212.1,170.53,227.28,179.42,240.27"/>
		</g>
		<g>
			<g>
				<path class="st5" d="M229.69,202.19v-21.72h7.67v33.34h-8.05l-12-21.43v21.43h-7.71v-33.34h8.05L229.69,202.19z"/>
				<path class="st5" d="M253.03,213.81h-8.52l6.14-12.52l-11.81-20.81h9l7.1,13.1l6.1-13.1h8.52L253.03,213.81z"/>
				<path class="st5" d="M302.07,201.85c-1.29,7.1-7.43,12.81-16.62,12.81c-11.24,0-17.91-8.19-17.91-17.57
					c0-9.1,6.57-17.48,17.48-17.48c10.33,0,16.05,6.19,17,13.81h-8.05c-0.71-3.91-3.71-6.86-8.48-6.86c-6.52,0-10.1,5.05-10.1,10.52
					c0,5.86,3.81,10.62,10.48,10.62c3.76,0,7.1-2.52,8-5.86h8.2V201.85z"/>
			</g>
		</g>
	</g>
</g>
</svg>
